<svg xmlns="http://www.w3.org/2000/svg" viewBox="0 0 1013 1280"><path d="M852.168 837.453c-48.885 51.41-97.713 102.88-146.736 154.156-4.877 5.099-5.236 8.605.405 13.107 5.458 4.361 10.846 8.975 15.437 14.203 5.855 6.664 10.186 6.657 17.125.657 39.475-34.124 78.587-68.745 119.417-101.189 47.801-37.989 97.236-73.916 145.953-110.748 2.735-2.066 5.374-4.258 9.174-7.279-3.59-2.998-6.241-5.553-9.216-7.638-91.614-64.135-177.98-134.851-261.906-208.637-12.909-11.347-10.468-11.778-23.431.286-19.348 18.015-19.233 17.843-.917 37.038 46.342 48.568 92.534 97.266 138.773 145.934 1.226 1.291 2.204 2.826 3.972 5.133-2.788.47-4.533 1.001-6.283 1.024-74.206.936-148.153-1.264-221.282-15.807-153.015-30.423-285.344-98.909-391.93-213.953-86.244-93.088-141.645-202.721-170.732-325.934C54.195 150.898 48.1 82.986 48.944 14.348 49.12.198 48.952.187 34.809.125 26.858.087 18.891.369 10.951.022 2.686-.337.116 3.18.043 11.373c-.493 58.96 2.91 117.573 13.241 175.716C32.792 296.89 71.996 398.903 134.668 491.361c101.028 149.054 238.961 247.913 411.029 299.578 68.84 20.673 139.323 32.173 211.173 34.651 30.19 1.043 60.419 1.043 90.629 1.505 3.773.057 7.547.008 11.316.008.355.756.71 1.516 1.058 2.272-2.566 2.693-5.144 5.377-7.707 8.078z"/><path d="M859.879 829.376c-2.57 2.693-5.148 5.377-7.711 8.078-48.885 51.41-97.713 102.88-146.736 154.156-4.877 5.099-5.236 8.605.405 13.107 5.458 4.361 10.846 8.975 15.437 14.203 5.855 6.664 10.186 6.657 17.125.657 39.475-34.124 78.587-68.745 119.417-101.189 47.801-37.989 97.236-73.916 145.953-110.748 2.735-2.066 5.374-4.258 9.174-7.279-3.59-2.998-6.241-5.553-9.216-7.638-91.614-64.135-177.98-134.851-261.906-208.637-12.909-11.347-10.468-11.778-23.431.286-19.348 18.015-19.233 17.843-.917 37.038 46.342 48.568 92.534 97.266 138.773 145.934 1.226 1.291 2.204 2.826 3.972 5.133-2.788.47-4.533 1.001-6.283 1.024-74.206.936-148.153-1.264-221.282-15.807-153.015-30.423-285.344-98.909-391.93-213.953C154.479 450.653 99.078 341.02 69.991 217.807 54.195 150.899 48.1 82.987 48.944 14.349 49.12.199 48.952.188 34.809.126 26.858.088 18.891.37 10.951.023 2.686-.336.116 3.181.043 11.374c-.493 58.96 2.91 117.573 13.241 175.716 19.508 109.801 58.712 211.814 121.384 304.272C235.696 640.416 373.629 739.275 545.697 790.94c68.84 20.673 139.323 32.173 211.173 34.651 30.19 1.043 60.419 1.043 90.629 1.505 3.773.057 7.547.008 11.316.008l1.062 2.272z"/><text y="1039" font-size="5" font-weight="bold" font-family="'Helvetica Neue', Helvetica, Arial-Unicode, Arial, Sans-serif">Created by Friedemann A</text><text y="1044" font-size="5" font-weight="bold" font-family="'Helvetica Neue', Helvetica, Arial-Unicode, Arial, Sans-serif">from the Noun Project</text></svg>